<svg width="18" height="18" viewBox="0 0 18 18" fill="none" xmlns="http://www.w3.org/2000/svg">
<path fill-rule="evenodd" clip-rule="evenodd" d="M15.9557 5.02276C16.2815 4.69775 16.2815 4.1694 15.9557 3.84439C15.6307 3.51855 15.1031 3.51855 14.7773 3.84439L5.98204 12.6396L3.2228 9.88123C2.89779 9.55539 2.36944 9.55539 2.04443 9.88123C1.71859 10.2071 1.71859 10.7346 2.04443 11.0596L5.35119 14.3672C5.36453 14.3814 5.37703 14.3955 5.39119 14.4089C5.5537 14.5722 5.76704 14.653 5.98038 14.653C6.02038 14.653 6.06038 14.6505 6.10038 14.6447C6.27289 14.6205 6.43956 14.5422 6.57206 14.4089C6.58623 14.3955 6.59956 14.3814 6.61206 14.3664L15.9557 5.02276Z" fill="#21943A"/>
</svg>
